<?xml version="1.0" standalone="no"?>
<!DOCTYPE svg PUBLIC "-//W3C//DTD SVG 20010904//EN"
 "http://www.w3.org/TR/2001/REC-SVG-20010904/DTD/svg10.dtd">
<svg version="1.0" xmlns="http://www.w3.org/2000/svg"
 width="2640.000000pt" height="1485.000000pt" viewBox="0 0 2640.000000 1485.000000"
 preserveAspectRatio="xMidYMid meet">

<g transform="translate(0.000000,1485.000000) scale(0.100000,-0.100000)"
fill="#000000" stroke="none">
<path d="M8520 13185 c-197 -17 -417 -51 -520 -80 -79 -22 -122 -41 -241 -109
-75 -43 -135 -56 -299 -66 -322 -21 -406 -23 -471 -12 -51 9 -74 9 -114 -2
-73 -20 -122 -43 -128 -61 -10 -25 -41 -17 -78 21 -31 32 -38 35 -84 33 -27
-2 -54 -6 -60 -10 -5 -4 -37 -14 -70 -24 -33 -9 -64 -21 -70 -25 -5 -5 -46
-16 -90 -25 -96 -19 -113 -30 -89 -56 18 -20 118 -61 206 -83 65 -17 204 -8
326 19 66 15 76 15 126 1 79 -23 107 -20 178 20 142 81 420 156 643 173 202
16 422 -17 571 -86 82 -37 136 -35 199 8 28 19 52 37 55 40 10 13 147 77 200
94 30 10 60 21 65 25 6 4 42 15 80 24 39 9 111 25 160 37 50 12 128 24 175 27
l84 5 -15 -24 c-30 -45 -225 -133 -339 -153 -87 -15 -114 -32 -103 -64 22 -63
67 -75 272 -76 l173 -2 23 -26 c31 -36 45 -107 52 -253 3 -66 12 -135 19 -154
8 -18 14 -41 14 -50 0 -20 -60 -83 -116 -122 -65 -45 -80 -121 -49 -244 24
-90 52 -141 116 -209 111 -120 262 -165 275 -82 3 22 77 139 111 177 19 21 64
55 100 76 223 130 211 125 333 143 117 17 178 40 214 79 11 12 25 21 31 21 7
0 18 7 25 14 19 24 97 45 205 56 94 10 327 59 388 82 15 6 34 23 42 37 7 14
25 37 40 51 15 14 51 62 80 106 48 74 58 83 103 98 27 9 69 29 93 45 42 26 44
30 47 82 2 30 -2 91 -9 136 -13 88 -6 115 29 106 9 -2 51 12 92 31 48 21 104
38 155 45 44 7 91 14 104 17 l24 5 -26 27 c-13 15 -28 37 -31 49 -14 44 -26
46 -181 33 l-144 -13 -58 26 c-93 42 -165 49 -543 54 -303 5 -400 2 -661 -17
l-306 -22 -162 21 c-146 19 -210 21 -595 20 -250 -1 -492 -7 -576 -14z"/>
<path d="M14960 13103 c-25 -15 -48 -31 -52 -37 -8 -13 -82 -12 -263 1 -71 6
-132 9 -134 6 -12 -10 41 -44 104 -66 57 -20 70 -29 71 -46 1 -13 6 -27 12
-33 15 -15 121 -5 317 31 94 17 208 34 255 37 115 7 152 13 145 25 -4 5 -13 9
-22 9 -9 0 -47 16 -84 35 -137 71 -270 85 -349 38z"/>
<path d="M16685 13091 c-8 -26 16 -71 52 -97 41 -29 172 -64 283 -75 174 -17
266 -48 340 -115 46 -42 51 -70 17 -102 -32 -30 -63 -39 -227 -62 -202 -28
-268 -45 -341 -83 -81 -43 -123 -53 -294 -72 -76 -8 -144 -20 -152 -26 -28
-24 -12 -58 65 -144 54 -60 89 -119 97 -165 8 -45 -17 -80 -80 -110 -78 -38
-97 -13 -72 92 l17 69 -62 92 c-102 153 -176 245 -222 277 -24 16 -46 35 -48
42 -3 7 -9 8 -17 3 -11 -6 -12 -31 -8 -106 5 -90 9 -106 47 -182 32 -65 40
-90 34 -111 -6 -26 -10 -28 -42 -22 -50 8 -140 55 -178 94 l-32 33 -6 -46 c-5
-28 -23 -69 -47 -106 -23 -33 -47 -76 -55 -95 -39 -94 -73 -161 -88 -173 -9
-7 -16 -24 -16 -37 0 -12 -4 -26 -10 -29 -5 -3 -10 -15 -10 -27 0 -11 -11 -41
-24 -67 -46 -87 -86 -178 -86 -192 0 -8 -36 -67 -80 -132 -68 -101 -80 -125
-80 -160 0 -40 -42 -139 -76 -178 -8 -8 -14 -22 -14 -30 0 -8 -56 -72 -125
-143 -69 -71 -125 -138 -125 -148 0 -10 -18 -41 -40 -70 -22 -29 -40 -61 -40
-71 0 -23 -48 -87 -65 -87 -7 0 -15 -4 -17 -8 -1 -4 -17 -18 -34 -30 -18 -12
-34 -34 -37 -49 -3 -16 -12 -47 -21 -70 -12 -32 -13 -49 -5 -69 13 -35 26 -45
123 -94 135 -69 216 -139 216 -188 0 -11 -8 -30 -18 -42 l-18 -23 -190 22
c-394 46 -389 46 -492 33 -123 -15 -234 -15 -267 0 -28 13 -40 3 -70 -59 -9
-18 -20 -35 -26 -39 -7 -4 -8 -20 -4 -42 4 -19 12 -75 20 -124 7 -49 20 -99
29 -113 32 -49 165 -64 385 -41 124 13 158 14 179 3 36 -17 63 -100 64 -194 0
-61 -5 -83 -34 -145 -18 -40 -48 -92 -66 -116 l-33 -44 24 -36 c52 -80 77
-132 77 -165 0 -31 14 -49 138 -173 147 -149 187 -197 303 -370 169 -254 235
-403 260 -594 20 -147 50 -176 178 -168 101 7 168 34 598 244 136 67 159 85
255 199 117 139 198 288 198 361 0 37 -46 75 -127 107 -60 24 -150 85 -161
109 -6 13 -28 9 -53 -11 -14 -10 -46 -31 -72 -46 -90 -50 -135 -24 -364 207
-151 152 -173 178 -173 206 0 30 2 32 38 32 21 0 43 5 50 12 17 17 84 -5 151
-49 29 -19 102 -82 162 -139 l107 -104 119 0 c106 0 124 -3 173 -26 182 -85
256 -99 424 -79 202 23 247 4 316 -131 48 -96 95 -169 124 -191 20 -16 48 -21
157 -27 74 -3 137 -10 142 -15 6 -6 -1 -23 -17 -44 -50 -65 -31 -215 41 -321
15 -22 52 -74 81 -114 28 -41 52 -78 52 -83 0 -5 11 -32 24 -61 27 -59 77
-234 101 -348 20 -99 43 -166 60 -180 12 -10 27 -6 76 20 63 33 153 49 177 32
8 -6 15 -38 17 -90 4 -87 27 -154 64 -191 26 -26 60 -27 67 -3 3 9 14 38 25
64 25 61 24 77 -7 156 -34 86 -66 128 -125 165 -56 34 -66 56 -46 95 51 97 50
89 38 156 -15 87 -14 224 3 279 11 38 41 75 164 204 83 87 165 176 182 198 54
69 83 91 154 120 77 30 193 43 260 28 37 -8 41 -12 52 -55 6 -25 28 -72 47
-104 20 -33 53 -99 73 -149 51 -126 79 -180 121 -225 44 -49 78 -54 86 -11 8
40 30 58 78 66 50 9 55 3 64 -79 3 -34 18 -97 33 -141 26 -76 27 -88 24 -251
-2 -170 -2 -171 25 -222 16 -28 63 -92 105 -141 123 -143 137 -183 82 -246
-13 -15 -24 -32 -24 -37 0 -4 -14 -8 -31 -8 -26 0 -48 17 -132 101 -56 55
-116 107 -134 116 -62 29 -71 -10 -19 -79 19 -24 82 -141 139 -259 108 -220
128 -250 315 -481 50 -62 111 -138 136 -169 107 -134 341 -225 655 -253 140
-13 222 -32 381 -87 113 -39 264 -69 346 -69 90 0 190 25 259 66 36 21 40 27
42 66 5 73 -1 74 -120 34 -106 -36 -228 -55 -348 -56 -43 0 -62 5 -88 24 -25
19 -54 26 -134 36 -191 22 -400 81 -612 172 -44 19 -103 42 -131 52 -95 31
-112 72 -79 182 8 27 15 74 15 105 0 75 -23 105 -88 115 -105 15 -162 70 -162
155 0 65 17 76 65 43 31 -20 36 -22 30 -7 -4 10 -11 59 -14 108 -8 111 -42
188 -125 290 -170 208 -235 314 -256 423 -13 63 -6 187 10 197 5 3 27 1 50 -4
75 -17 190 -111 323 -264 33 -38 66 -67 77 -67 33 0 164 85 184 119 6 10 27
40 48 67 91 122 74 179 -134 447 -124 160 -163 224 -172 277 -9 58 4 76 60 83
42 4 64 19 65 44 1 19 35 43 61 43 59 0 95 -79 64 -141 -9 -18 -16 -39 -16
-48 0 -20 70 -141 82 -141 4 0 8 13 8 30 0 16 9 52 20 80 11 28 20 58 20 67 0
37 42 103 68 109 15 4 72 28 127 54 55 26 111 50 125 55 46 14 129 66 142 89
7 12 32 50 55 85 23 34 55 96 73 139 17 42 35 86 40 97 12 24 46 138 54 180 8
35 -4 59 -116 235 -20 33 -76 111 -123 174 -73 98 -86 121 -83 148 2 25 7 33
22 31 11 -1 30 3 43 8 23 8 23 10 8 39 -18 34 -92 76 -153 86 -32 5 -46 2 -70
-16 -25 -18 -37 -21 -72 -15 -59 10 -84 37 -76 83 11 72 136 218 190 224 31 3
36 -2 57 -72 10 -31 23 -49 46 -63 32 -18 33 -18 67 2 47 30 68 27 149 -21
114 -68 184 -144 250 -274 31 -62 64 -114 73 -118 27 -10 72 -7 81 7 12 19 45
109 50 138 6 35 -23 67 -157 174 -122 98 -131 117 -88 176 18 23 23 48 28 119
3 49 10 93 15 99 6 5 64 19 130 31 78 14 126 27 136 38 34 37 60 122 70 234
16 189 -10 295 -96 388 -29 31 -46 73 -36 89 17 27 155 -40 205 -100 80 -95
196 -399 236 -619 14 -75 37 -114 120 -206 33 -36 63 -76 66 -89 6 -26 -29
-150 -62 -216 -12 -25 -39 -60 -59 -78 -46 -40 -149 -91 -195 -96 -54 -5 -86
-21 -109 -53 -11 -17 -21 -33 -21 -37 0 -4 -18 -45 -41 -91 -51 -105 -47 -126
32 -166 92 -47 149 -46 149 1 0 37 89 119 178 164 107 55 172 74 282 84 83 8
85 9 83 33 -2 14 -28 77 -58 140 -49 103 -57 127 -69 225 -8 61 -24 137 -35
169 -34 95 -28 129 24 139 17 3 60 19 97 36 57 25 70 36 83 68 9 21 15 49 13
63 -3 21 -9 25 -42 28 -21 2 -53 -4 -74 -14 -38 -18 -183 -31 -225 -20 -46 11
-86 54 -102 109 -8 29 -36 93 -60 142 -25 50 -51 120 -59 157 -16 82 -36 110
-165 232 -53 50 -119 114 -148 143 -46 45 -53 49 -58 32 -8 -23 -11 -23 -105
-3 -60 13 -107 15 -231 9 -143 -6 -157 -5 -178 12 -35 28 -30 93 14 203 47
117 84 198 94 205 10 6 79 18 101 18 94 -1 337 -30 419 -49 142 -34 145 -33
148 41 5 109 12 157 29 182 14 22 22 25 58 20 22 -2 75 -21 117 -41 102 -48
105 -48 106 20 2 70 13 84 72 84 38 0 53 -6 79 -29 55 -51 42 -107 -50 -214
-46 -54 -51 -63 -55 -121 -7 -81 11 -121 75 -163 26 -17 124 -105 217 -195
152 -146 239 -218 250 -206 2 2 -3 45 -10 96 -8 50 -17 131 -21 179 -4 49 -13
101 -21 116 -8 16 -49 63 -91 105 -86 86 -138 175 -128 218 5 20 11 24 24 18
34 -14 149 -25 211 -19 68 6 125 31 117 51 -6 15 58 90 76 91 7 1 47 6 88 12
41 6 97 11 123 11 l48 0 -68 68 c-53 53 -82 73 -130 91 -51 19 -63 28 -63 45
0 35 16 42 92 39 92 -3 188 -24 332 -73 63 -21 117 -36 120 -33 3 3 -1 15 -9
27 -7 11 -16 40 -20 63 -4 23 -13 47 -20 53 -7 6 -60 17 -118 25 -104 14 -195
38 -362 95 -201 69 -497 141 -641 154 -69 7 -84 14 -84 41 0 22 12 37 35 41 6
2 34 7 64 13 30 6 56 13 58 15 2 2 -13 17 -33 34 -46 38 -127 60 -150 41 -29
-24 -46 -71 -41 -110 8 -64 -5 -72 -129 -77 -166 -7 -465 15 -658 48 -184 31
-319 46 -541 59 -119 7 -150 12 -205 35 -122 52 -145 58 -256 66 -147 10 -180
27 -219 116 -12 27 -36 66 -54 86 -56 65 -73 68 -323 68 -235 0 -257 -4 -237
-42 14 -26 78 -64 130 -78 61 -17 173 -74 236 -122 60 -45 67 -72 28 -101 -21
-15 -49 -17 -202 -18 -111 0 -189 4 -208 11 -16 6 -52 33 -80 59 -131 124
-165 132 -597 129 -225 -1 -336 2 -365 10 -47 14 -91 59 -128 132 -43 85 -65
90 -350 75 -222 -11 -303 11 -474 127 -42 29 -96 59 -121 69 -57 21 -220 54
-370 74 -63 8 -125 17 -137 21 -16 4 -23 1 -28 -15z m-826 -2600 c24 -15 -4
-63 -89 -152 -93 -97 -108 -124 -92 -178 15 -50 79 -147 161 -246 162 -196
184 -235 155 -281 l-18 -27 -96 7 c-151 10 -229 39 -259 93 -6 12 -11 62 -11
112 0 49 -5 102 -10 117 -6 15 -39 70 -74 123 -77 117 -90 154 -83 237 5 72
46 154 76 154 10 0 21 3 25 8 4 4 26 15 49 24 46 19 240 25 266 9z"/>
<path d="M13225 13074 c-38 -4 -183 -29 -235 -41 -14 -3 -34 -8 -45 -10 -46
-8 -85 -26 -94 -41 -11 -20 11 -62 43 -82 92 -59 141 -83 224 -111 128 -43
156 -37 183 40 25 73 42 90 80 82 24 -5 36 -17 58 -61 20 -39 35 -56 51 -58
29 -5 97 28 255 125 75 46 134 79 160 91 28 13 29 15 10 22 -11 5 -47 9 -80
10 -33 0 -121 7 -195 16 -142 15 -347 25 -415 18z"/>
<path d="M15640 12829 c-25 -5 -55 -11 -67 -13 -58 -11 -89 -19 -98 -27 -6 -4
-31 -13 -57 -18 -68 -15 -190 -86 -236 -135 -31 -34 -43 -56 -52 -102 -6 -33
-16 -72 -22 -87 -10 -25 -8 -32 15 -54 14 -14 50 -38 79 -52 42 -20 54 -32 56
-52 3 -22 -3 -29 -27 -40 -17 -8 -31 -17 -31 -21 0 -3 -26 -12 -57 -18 -32 -7
-63 -16 -68 -21 -17 -13 -94 -27 -187 -33 -120 -8 -159 -25 -192 -86 -25 -46
-33 -52 -163 -115 -75 -36 -144 -64 -152 -63 -10 2 -17 16 -19 34 -6 59 71
119 204 159 73 22 76 26 63 63 -13 38 -24 43 -214 106 -154 51 -297 93 -380
111 -157 35 -344 28 -580 -22 -275 -57 -354 -105 -370 -225 -5 -35 -16 -60
-38 -85 -44 -50 -173 -131 -349 -219 -84 -42 -163 -85 -175 -97 -29 -26 -30
-80 -4 -123 28 -47 90 -127 109 -141 24 -20 84 -16 197 13 112 28 130 26 160
-20 9 -13 20 -52 26 -87 7 -48 16 -70 35 -86 29 -27 51 -28 118 -8 71 22 88
36 119 97 27 53 28 59 25 195 -3 138 -3 140 25 182 39 58 174 199 200 207 11
4 38 19 60 35 51 37 87 39 87 5 0 -25 -35 -71 -108 -142 -62 -61 -58 -83 41
-224 34 -50 57 -51 170 -11 134 46 208 47 161 0 -17 -16 -163 -97 -182 -100
-4 -1 -17 -5 -30 -10 -30 -12 -49 -11 -57 1 -3 5 -13 6 -21 3 -13 -5 -15 -15
-10 -45 8 -51 -7 -79 -42 -76 -35 4 -51 -30 -64 -130 -14 -116 -22 -123 -208
-172 -51 -14 -166 -12 -231 4 -76 17 -108 43 -149 117 -19 35 -54 83 -78 107
-52 53 -67 47 -77 -31 -9 -64 -25 -97 -77 -153 -26 -29 -49 -44 -65 -44 -29 0
-103 -67 -176 -160 -29 -36 -61 -75 -71 -87 -27 -32 -71 -30 -102 5 -23 23
-25 33 -20 72 21 148 32 115 -87 288 -50 73 -60 116 -55 257 l3 120 -40 -3
c-22 -2 -58 -12 -80 -22 -22 -11 -65 -20 -95 -21 -99 -3 -146 -37 -180 -127
-24 -64 -77 -143 -159 -237 -34 -38 -65 -84 -70 -101 -12 -44 2 -108 41 -189
40 -83 57 -96 95 -73 16 10 27 22 25 28 -1 6 9 26 23 44 14 19 39 62 56 97 17
35 40 74 52 87 43 46 148 16 134 -39 -3 -13 -26 -51 -50 -84 -69 -96 -89 -183
-46 -206 26 -14 99 -4 154 21 94 42 107 44 150 24 50 -24 56 -52 18 -80 -39
-29 -174 -58 -234 -50 -37 5 -48 3 -53 -9 -8 -22 16 -67 56 -101 102 -92 124
-134 95 -190 -35 -67 -53 -74 -243 -105 -98 -16 -196 -31 -218 -33 -50 -6 -79
-36 -70 -75 3 -14 13 -48 21 -75 15 -48 14 -71 -6 -166 -26 -118 -3 -205 58
-225 36 -12 61 -39 61 -66 0 -10 7 -25 16 -33 20 -20 84 -22 84 -2 0 8 25 23
58 34 76 28 81 29 206 51 60 11 113 26 117 33 16 24 9 78 -12 107 -14 19 -19
39 -17 66 3 40 4 41 81 74 26 12 47 26 47 31 0 14 80 148 94 158 19 15 159 50
221 57 77 7 153 24 186 41 23 11 30 10 60 -10 19 -12 59 -39 89 -59 30 -20 89
-68 130 -107 95 -90 148 -130 172 -130 54 0 98 -52 78 -91 -13 -24 -104 -78
-147 -87 -24 -5 -39 -15 -44 -29 -7 -18 2 -32 50 -83 69 -73 98 -79 98 -22 0
56 16 78 60 85 21 4 62 18 90 33 48 23 52 28 47 52 -4 15 -15 44 -25 64 -11
21 -19 49 -19 64 0 30 9 30 92 -2 26 -10 51 -15 55 -10 19 20 -187 176 -393
299 -34 21 -67 43 -73 51 -26 31 -53 191 -35 208 26 27 356 -145 485 -253 51
-43 57 -54 89 -181 26 -100 22 -143 -15 -178 -14 -13 -25 -29 -25 -36 0 -7 34
-30 76 -50 70 -34 77 -39 99 -89 30 -70 48 -79 128 -65 102 18 98 15 80 58 -8
20 -33 60 -54 89 -55 74 -65 97 -51 128 8 17 20 25 36 25 14 0 41 7 60 17 30
14 34 20 29 43 -6 32 13 74 31 67 23 -9 34 7 43 63 6 34 14 54 21 52 7 -1 17
-3 24 -5 7 -1 15 9 18 23 3 14 16 47 29 75 12 27 31 88 42 134 11 47 25 91 31
99 9 10 28 13 69 10 69 -5 108 -31 180 -124 49 -62 89 -84 89 -49 0 20 21 53
86 135 54 68 78 93 98 96 31 5 66 25 66 38 0 20 50 123 86 176 17 25 48 79 68
120 40 79 81 130 103 130 8 0 11 5 8 11 -4 6 1 19 11 29 11 10 35 42 54 71 19
28 44 62 56 74 24 26 54 96 54 125 0 23 42 70 63 70 9 0 17 10 19 22 2 15 13
24 35 30 20 5 32 14 32 26 0 57 55 185 102 240 16 18 29 38 29 43 0 6 10 32
23 58 13 25 27 62 30 81 4 19 25 55 47 81 48 57 110 158 110 180 0 8 -13 28
-29 43 -17 16 -31 40 -33 55 -3 25 -4 26 -83 23 -67 -2 -86 1 -113 18 -27 16
-33 26 -30 48 2 19 9 27 23 28 40 2 45 4 45 19 0 8 -17 19 -42 25 -101 26
-128 49 -128 108 0 36 39 82 71 82 10 0 20 4 23 9 18 29 261 104 439 135 34 6
38 10 33 29 -3 12 -6 32 -6 43 0 12 -8 25 -17 29 -28 11 -163 13 -213 4z"/>
<path d="M7594 12816 c-7 -18 -44 -22 -44 -4 0 9 -3 9 -12 0 -7 -7 -19 -12
-28 -12 -9 0 -42 -14 -74 -31 -118 -64 -198 -128 -225 -181 -15 -29 -38 -35
-69 -19 -21 12 -55 24 -62 24 -89 -12 -167 -55 -188 -103 -13 -29 -6 -70 12
-70 17 0 54 -41 57 -65 2 -11 -4 -31 -14 -45 -11 -15 -17 -19 -17 -10 -1 12
-3 11 -14 -2 -14 -19 -46 -25 -46 -8 0 13 -72 -25 -105 -56 -14 -13 -30 -24
-35 -24 -5 0 -13 -7 -18 -16 -16 -29 -198 -2 -209 31 -5 16 12 35 34 39 47 9
114 37 131 54 12 12 19 36 20 73 3 71 18 116 53 160 28 37 28 37 6 43 -31 7
-57 2 -67 -14 -5 -8 -18 -11 -39 -7 -16 4 -33 2 -36 -3 -8 -14 -181 -12 -230
1 -22 6 -89 34 -150 62 -81 36 -130 52 -185 59 -41 6 -83 14 -93 19 -13 7 -19
5 -23 -6 -4 -10 -14 -13 -30 -9 -16 4 -24 2 -24 -7 0 -10 -3 -10 -8 -3 -8 13
-52 0 -52 -15 0 -5 -10 -13 -22 -17 -40 -12 -138 -92 -138 -112 0 -5 -7 -15
-15 -22 -20 -16 -19 -56 1 -64 9 -3 55 -6 102 -6 113 -1 132 -13 141 -95 4
-43 11 -61 26 -69 11 -6 22 -14 25 -17 3 -3 19 -11 37 -18 17 -7 38 -20 47
-30 52 -57 -88 -43 -180 18 -79 52 -104 58 -284 72 -85 6 -164 16 -174 21 -23
13 -340 27 -344 16 -6 -13 -42 -9 -42 4 0 6 -6 3 -14 -7 -7 -10 -20 -16 -28
-12 -9 3 -21 0 -27 -6 -6 -6 -11 -7 -11 -2 0 4 -10 0 -21 -11 -15 -13 -23 -15
-26 -7 -5 15 -53 -4 -53 -21 0 -6 -4 -6 -8 2 -7 10 -14 8 -34 -7 -14 -11 -28
-18 -30 -15 -3 2 -11 -2 -18 -11 -21 -25 -99 -18 -212 19 -207 68 -238 77
-310 92 -40 8 -82 17 -93 19 -54 13 -148 23 -217 24 -55 1 -78 5 -78 14 -1 7
-6 5 -14 -5 -15 -21 -56 -24 -56 -5 -1 7 -7 4 -15 -7 -9 -12 -22 -17 -34 -13
-11 3 -25 -1 -32 -9 -14 -17 -39 -18 -39 -2 0 6 -9 3 -21 -8 -15 -14 -22 -15
-28 -6 -6 10 -11 9 -21 -3 -9 -11 -22 -14 -37 -10 -13 3 -23 1 -23 -5 0 -15
-30 -12 -30 3 -1 7 -7 4 -15 -7 -8 -10 -21 -16 -29 -13 -9 4 -18 2 -22 -4 -3
-6 -12 -8 -20 -5 -8 3 -17 -1 -20 -9 -4 -10 -14 -13 -30 -9 -15 4 -24 2 -24
-6 0 -7 -8 -9 -21 -5 -14 5 -25 2 -30 -6 -7 -12 -9 -11 -9 1 0 12 -2 12 -9 2
-4 -7 -17 -15 -27 -17 -10 -2 -19 -4 -19 -5 0 -1 -17 -6 -47 -13 -7 -1 -19 -6
-25 -10 -7 -5 -17 -6 -21 -3 -5 3 -21 -4 -38 -15 -16 -11 -39 -24 -51 -29 -27
-11 -30 -45 -8 -76 13 -19 12 -23 -9 -43 -22 -21 -32 -22 -125 -20 -68 2 -105
-1 -113 -9 -15 -15 -110 -16 -124 -2 -8 8 -15 6 -24 -5 -14 -16 -40 -21 -40
-6 0 5 -15 4 -35 -2 -20 -6 -35 -17 -35 -26 0 -8 25 -41 56 -72 51 -52 55 -58
42 -78 -14 -23 -58 -29 -58 -8 -1 7 -6 5 -14 -5 -15 -20 -56 -24 -56 -6 0 7
-7 2 -16 -10 -16 -23 -44 -30 -44 -10 0 6 -9 3 -21 -8 -13 -12 -23 -14 -27 -8
-12 19 -65 -11 -126 -70 -31 -31 -61 -56 -66 -56 -5 0 -15 -6 -22 -13 -7 -8
-27 -20 -43 -28 -40 -19 -44 -52 -10 -67 14 -7 34 -12 43 -12 10 0 26 -6 37
-13 11 -7 47 -21 80 -32 33 -11 74 -28 92 -38 29 -17 31 -21 21 -43 -8 -17
-17 -23 -29 -19 -9 3 -20 1 -24 -5 -4 -6 -15 -8 -25 -5 -10 3 -22 1 -25 -6 -6
-8 -10 -7 -16 2 -6 10 -9 11 -9 2 0 -7 -8 -13 -18 -13 -10 0 -22 -3 -26 -7 -3
-4 -13 -8 -21 -10 -8 -2 -22 -4 -30 -6 -8 -2 -18 -6 -21 -10 -4 -4 -16 -7 -26
-7 -10 0 -18 -6 -18 -12 0 -10 -2 -10 -9 0 -6 10 -10 10 -21 -2 -7 -9 -16 -14
-20 -11 -5 3 -11 1 -15 -5 -4 -6 -10 -8 -15 -5 -5 3 -30 -5 -55 -19 -25 -14
-45 -23 -45 -19 0 3 -9 -2 -21 -13 -16 -14 -22 -15 -28 -5 -6 10 -10 10 -16 1
-4 -6 -13 -9 -21 -6 -8 3 -23 -3 -34 -14 -23 -23 -40 -26 -40 -7 0 9 -2 9 -9
-1 -4 -7 -17 -15 -27 -17 -10 -2 -19 -4 -19 -5 0 -1 -9 -3 -19 -5 -10 -2 -22
-9 -26 -15 -4 -7 -18 -8 -33 -4 -18 4 -27 2 -27 -6 0 -7 -7 -10 -16 -6 -9 4
-23 1 -30 -5 -8 -7 -14 -7 -14 -2 0 19 -95 -37 -157 -93 -45 -40 -63 -62 -63
-80 0 -28 24 -42 44 -25 7 6 16 8 19 4 4 -3 12 -1 19 4 7 6 42 19 78 29 36 10
67 20 70 24 3 3 43 17 90 30 47 13 90 27 95 31 6 4 39 15 75 25 36 10 67 21
70 25 3 3 44 16 91 28 48 12 104 30 125 40 22 10 58 22 82 26 23 4 42 10 42
15 0 4 28 15 63 25 34 9 71 22 82 28 11 7 27 13 35 14 8 1 26 5 40 8 33 8 70
-26 70 -65 0 -40 14 -45 58 -22 20 10 53 27 72 37 39 21 51 34 43 49 -3 5 -2
7 3 4 17 -10 54 10 48 27 -4 10 -2 13 8 10 7 -3 22 1 33 9 11 9 14 16 8 16 -7
0 6 29 30 64 23 35 50 79 61 98 10 18 21 28 23 21 2 -7 11 -9 19 -6 16 6 92
-14 109 -29 12 -10 52 -10 59 0 3 5 36 17 73 26 37 10 83 25 101 33 55 24 137
29 168 8 15 -9 56 -26 93 -36 36 -10 80 -25 96 -33 17 -8 45 -20 62 -26 59
-22 92 -109 59 -153 -8 -10 -16 -14 -17 -8 -3 6 -11 5 -21 -3 -20 -15 -23 -52
-13 -167 7 -84 7 -86 -19 -102 -14 -9 -35 -19 -48 -20 -12 -2 -31 -16 -42 -30
-27 -37 -13 -81 28 -85 38 -5 89 17 82 35 -8 20 37 114 68 142 15 15 26 19 26
12 0 -10 6 -9 24 3 14 9 27 12 30 7 7 -10 -8 -58 -35 -116 -10 -23 -22 -62
-25 -87 -5 -36 -15 -55 -45 -84 -53 -52 -53 -86 1 -139 36 -37 39 -44 40 -97
0 -31 -4 -60 -10 -63 -5 -3 -10 -20 -10 -37 0 -32 -36 -107 -57 -121 -7 -4
-13 -13 -13 -20 0 -11 -116 -158 -160 -202 -11 -12 -20 -26 -20 -33 0 -6 -9
-17 -20 -24 -11 -7 -20 -16 -20 -21 0 -4 -12 -26 -27 -50 l-28 -42 0 -270 0
-270 27 -27 c15 -14 44 -32 64 -40 20 -7 47 -26 60 -41 22 -26 24 -37 24 -138
0 -60 4 -109 9 -109 5 0 12 -20 15 -44 4 -27 19 -60 37 -82 27 -34 29 -43 29
-122 0 -84 0 -85 35 -118 35 -32 35 -33 35 -117 l0 -85 44 -39 c42 -37 151
-91 162 -80 3 3 -6 28 -20 56 -14 28 -26 55 -26 61 0 6 -9 29 -19 53 -62 137
-131 419 -131 535 0 86 47 80 85 -11 9 -23 23 -55 31 -72 7 -16 23 -57 35 -90
11 -33 29 -79 40 -102 10 -24 19 -48 19 -53 0 -6 9 -28 19 -48 10 -20 28 -57
40 -82 37 -79 60 -113 114 -170 29 -30 61 -67 70 -82 19 -31 23 -103 6 -114
-6 -3 -9 -17 -6 -30 2 -14 0 -27 -4 -30 -5 -3 -9 -34 -9 -69 0 -58 3 -68 31
-100 17 -19 37 -35 45 -35 8 0 14 -3 14 -7 0 -5 27 -19 60 -33 33 -14 60 -28
60 -32 0 -5 6 -8 13 -8 8 0 39 -18 70 -40 30 -22 58 -40 61 -40 3 0 34 -20 70
-45 86 -61 137 -78 207 -71 31 3 69 11 85 17 16 7 32 13 36 13 3 1 10 4 14 9
4 4 22 7 40 7 26 0 39 -7 58 -33 15 -19 26 -38 26 -43 0 -19 106 -114 154
-138 27 -14 73 -28 102 -32 68 -8 110 -35 130 -81 9 -21 20 -45 24 -53 4 -9
11 -35 15 -59 5 -31 19 -57 48 -88 33 -36 53 -47 113 -65 41 -11 74 -25 74
-30 0 -4 5 -8 11 -8 6 0 43 -30 81 -66 l70 -66 114 7 113 7 7 -26 c3 -15 5
-89 2 -165 -3 -136 -4 -139 -36 -190 -17 -29 -32 -56 -32 -60 0 -4 -34 -40
-75 -80 -41 -40 -75 -75 -75 -77 0 -3 -11 -22 -25 -44 -32 -50 -32 -90 1 -141
25 -41 49 -139 33 -139 -5 0 -9 -6 -9 -14 0 -17 -31 -78 -45 -88 -17 -12 -10
-99 8 -110 10 -5 17 -14 17 -20 0 -6 24 -41 53 -77 30 -36 62 -79 73 -96 10
-16 21 -32 24 -35 29 -27 129 -212 150 -276 7 -21 16 -43 20 -49 3 -5 12 -30
19 -55 7 -25 26 -66 42 -93 16 -26 29 -49 29 -52 0 -2 24 -28 53 -56 34 -34
83 -66 143 -95 50 -24 94 -44 97 -44 4 0 34 -19 68 -42 69 -48 133 -126 144
-175 3 -18 11 -35 16 -38 13 -8 12 -772 -1 -780 -6 -3 -10 -48 -10 -101 0 -56
4 -94 10 -94 6 0 10 -19 10 -42 0 -24 9 -86 20 -138 11 -52 20 -111 20 -131 0
-19 5 -40 12 -47 9 -9 9 -17 -1 -35 -7 -13 -12 -33 -10 -43 1 -10 -1 -27 -6
-37 -17 -39 3 -140 40 -212 34 -65 38 -79 44 -187 8 -116 18 -148 47 -148 8 0
14 -4 14 -10 0 -5 11 -10 25 -10 41 0 47 -27 34 -151 -12 -118 -4 -181 26
-193 11 -4 15 -23 15 -76 0 -118 15 -155 96 -236 39 -38 88 -78 108 -88 20
-10 66 -37 100 -62 35 -24 68 -44 73 -44 5 0 29 -17 52 -37 43 -36 44 -36 88
-24 25 6 48 10 50 7 8 -8 -18 -76 -28 -76 -6 0 -9 -16 -7 -37 2 -26 11 -42 31
-57 27 -20 43 -21 245 -24 l217 -2 -45 40 c-49 45 -109 79 -195 111 -82 31
-110 59 -135 137 -12 37 -28 74 -35 82 -22 24 -45 86 -45 120 0 17 12 58 26
92 32 76 23 103 -52 159 -29 22 -55 47 -58 55 -21 54 7 151 68 241 35 51 34
88 -5 124 -20 19 -29 36 -27 51 3 20 11 24 62 30 57 7 90 23 81 38 -9 14 26
97 51 120 13 13 24 18 24 12 0 -13 86 13 110 33 8 7 25 16 37 19 11 4 24 13
27 21 3 8 12 15 20 15 8 0 14 10 15 23 0 12 3 39 7 59 5 32 -1 49 -41 124 -61
112 -58 120 49 116 42 -2 82 1 89 6 7 5 29 15 50 21 20 7 37 17 37 22 0 20 2
25 20 44 21 23 72 138 90 203 6 24 29 70 50 103 77 119 83 140 90 292 l6 138
32 32 c18 17 32 26 32 20 0 -13 53 -1 74 16 7 6 16 8 19 4 4 -3 12 -1 19 4 7
6 29 14 48 17 46 9 98 27 173 60 21 9 44 16 52 16 8 0 15 5 15 11 0 5 14 15
30 20 17 6 30 17 30 25 0 8 10 31 23 52 13 20 39 89 58 152 l34 115 -2 214
c-3 209 -2 216 22 268 32 71 62 108 210 263 13 14 40 56 59 93 35 66 36 72 36
177 0 85 -4 115 -17 139 -25 44 -101 79 -188 87 -80 7 -111 28 -121 79 -11 61
-49 77 -198 86 -151 8 -171 14 -247 74 -66 51 -131 78 -248 99 -111 20 -125
31 -140 103 -7 32 -22 85 -33 118 -23 62 -95 185 -110 185 -4 0 -16 8 -26 18
-31 29 -276 142 -309 142 -5 0 -45 19 -88 43 -90 48 -129 96 -160 195 -41 132
-85 196 -144 208 -14 3 -33 9 -43 14 -11 6 -20 4 -28 -5 -15 -18 -40 -20 -40
-3 0 6 -9 3 -21 -8 -17 -15 -22 -16 -29 -4 -7 12 -10 12 -16 -3 -7 -20 -34
-23 -34 -4 0 7 -5 5 -11 -5 -5 -9 -16 -15 -24 -12 -8 4 -18 -1 -21 -10 -5 -12
-20 -16 -63 -16 -50 0 -75 8 -197 68 -178 85 -190 90 -248 101 -26 5 -53 14
-58 19 -8 8 -17 8 -30 1 -10 -5 -18 -8 -18 -5 0 21 -155 -87 -178 -123 -7 -12
-18 -21 -26 -21 -7 0 -34 -22 -60 -50 -26 -27 -51 -50 -56 -50 -5 0 -19 -14
-31 -31 l-22 -31 -71 7 c-39 3 -102 10 -141 13 -46 5 -82 15 -106 29 -49 31
-127 115 -135 147 -3 14 1 85 9 158 9 73 12 149 8 168 -7 38 -25 46 -106 49
-59 2 -176 46 -202 76 -38 43 -37 45 71 206 74 109 102 169 93 193 -3 8 -23
18 -44 21 -21 3 -46 10 -55 15 -10 6 -19 6 -23 0 -3 -5 -13 -8 -23 -8 -25 1
-72 -20 -72 -32 0 -5 -6 -10 -14 -10 -17 0 -166 -159 -166 -177 0 -7 -6 -13
-13 -13 -8 0 -26 -13 -40 -30 -15 -16 -33 -30 -40 -30 -7 0 -18 -9 -25 -20
-15 -25 -88 -28 -131 -6 -39 21 -83 73 -105 126 -10 25 -21 52 -26 60 -36 73
-65 265 -57 379 8 103 19 139 65 206 36 53 153 177 160 170 6 -5 82 36 82 44
0 15 107 43 185 48 44 2 87 7 95 10 8 3 27 5 42 4 15 -1 39 6 53 15 55 36 356
28 430 -10 17 -9 35 -16 41 -16 6 0 23 -9 38 -21 24 -19 26 -26 26 -101 0 -44
6 -99 12 -122 16 -52 91 -129 144 -146 62 -20 66 -27 41 -65 -12 -19 -32 -39
-44 -44 -13 -6 -23 -16 -23 -22 0 -6 -13 -9 -30 -7 -19 2 -34 -3 -40 -11 -7
-12 -11 -12 -23 -2 -11 8 -17 9 -22 1 -3 -6 -10 -8 -15 -5 -5 3 -12 0 -15 -6
-4 -5 -13 -8 -20 -5 -8 3 -25 -4 -39 -15 -13 -10 -26 -15 -28 -10 -1 5 -16 -1
-32 -14 -26 -21 -28 -27 -19 -48 10 -20 23 -27 76 -36 35 -6 84 -11 109 -11
24 0 48 -3 52 -7 4 -4 27 -6 53 -4 25 1 49 -1 52 -6 3 -4 20 -13 36 -18 29
-11 30 -12 27 -70 -8 -157 -8 -157 13 -169 11 -6 23 -15 26 -20 4 -5 11 -6 17
-2 6 3 13 2 16 -2 3 -5 67 -12 143 -16 190 -9 396 -27 408 -36 6 -5 71 -11
145 -15 200 -9 280 -22 306 -46 25 -24 32 -14 26 38 -6 50 -38 67 -146 74
-133 10 -279 42 -376 84 -73 32 -169 68 -346 131 -49 17 -150 115 -163 158 -5
17 -12 85 -16 150 -5 108 -9 126 -41 195 -20 42 -42 83 -50 92 -29 33 -74 178
-74 239 0 52 4 64 31 95 17 19 35 32 40 30 11 -7 51 14 45 23 -3 5 5 9 17 9
11 1 25 9 29 18 5 8 16 15 24 15 8 0 14 6 12 13 -2 6 2 14 7 15 29 11 45 24
39 34 -5 7 -2 9 8 6 20 -8 43 7 43 29 0 10 7 19 15 19 8 1 20 2 27 3 7 0 20
18 29 38 10 20 19 32 21 26 6 -16 43 -3 43 14 0 9 16 34 36 57 50 59 49 57 85
127 42 85 65 113 97 120 15 3 26 10 25 16 -2 7 23 24 55 39 31 14 61 33 65 40
4 8 13 14 19 14 6 0 32 16 58 35 26 19 52 35 56 35 13 1 55 37 53 47 -3 19 2
27 10 14 7 -11 13 -9 29 7 11 11 30 26 42 32 11 6 18 15 15 21 -4 5 5 9 19 9
23 0 32 10 24 25 -4 5 93 104 101 103 27 -3 42 4 38 16 -6 14 44 69 59 65 15
-4 64 13 64 21 0 4 7 11 16 14 11 4 31 -7 59 -33 32 -30 55 -41 90 -47 66 -9
164 3 213 26 23 11 46 20 52 20 32 0 158 85 152 103 -1 4 1 6 5 6 5 -1 17 -1
28 0 14 1 16 4 8 12 -6 6 -9 17 -6 25 6 16 -16 21 -117 27 -97 7 -155 29 -168
67 -6 16 -9 30 -8 32 2 1 6 15 10 29 5 23 1 29 -28 43 -19 9 -58 16 -88 16
-59 0 -78 12 -78 46 0 28 40 77 66 80 10 2 40 8 66 14 26 6 62 10 80 8 28 -3
34 -8 43 -39 5 -20 16 -44 24 -53 17 -20 76 -21 113 -2 14 8 42 19 62 26 20 6
36 15 36 20 0 5 26 20 58 35 31 14 64 30 74 35 24 13 87 0 98 -21 6 -9 7 -26
3 -36 -11 -31 -55 -83 -69 -83 -8 0 -14 -3 -14 -7 0 -5 -23 -19 -50 -32 -43
-21 -47 -26 -32 -36 9 -6 56 -20 105 -30 48 -9 87 -21 87 -25 0 -11 94 -40
130 -40 35 0 91 28 88 45 -1 5 1 20 6 32 5 16 -1 36 -20 69 -35 59 -44 106
-53 269 -9 151 -20 182 -86 245 -25 25 -57 68 -71 96 -21 44 -24 65 -24 162 0
114 -9 158 -34 168 -9 3 -40 -12 -72 -35 -32 -23 -63 -41 -70 -41 -6 0 -15 -7
-18 -16 -3 -8 -10 -13 -15 -10 -5 3 -14 -1 -21 -9 -16 -20 -64 -19 -84 1 -9 9
-16 32 -16 54 0 21 -4 50 -9 63 -9 24 -67 87 -79 87 -4 0 -16 13 -26 28 -35
53 -72 68 -196 82 -63 7 -118 18 -122 24 -14 21 -59 -39 -115 -154 -31 -63
-65 -128 -76 -144 -18 -26 -19 -34 -9 -91 25 -134 8 -182 -78 -227 -14 -7 -53
-32 -87 -55 -35 -24 -63 -40 -63 -36 0 5 -5 0 -11 -9 -5 -10 -16 -18 -23 -18
-18 0 -61 -48 -86 -97 -12 -24 -26 -43 -31 -43 -5 0 -9 -6 -9 -14 0 -8 -16
-28 -35 -45 -19 -17 -35 -35 -35 -41 0 -17 -26 -11 -46 11 -21 23 -23 74 -9
217 6 63 5 76 -11 94 -31 33 -95 55 -200 68 -171 20 -189 32 -229 150 -46 134
-33 176 69 226 125 61 171 87 179 100 4 8 13 14 20 14 7 0 30 14 51 30 22 17
43 30 47 30 5 0 29 13 54 29 26 16 69 35 96 42 27 7 49 17 49 22 0 5 9 7 21 4
12 -3 33 -1 47 4 18 7 28 7 30 0 2 -6 12 -11 22 -11 13 0 22 -13 32 -42 l13
-43 54 0 55 0 0 40 c1 37 3 40 29 39 15 -1 27 2 27 6 0 4 36 13 80 20 l79 12
-34 43 c-38 45 -44 75 -20 95 8 7 15 10 15 6 0 -7 102 32 110 42 3 4 18 13 33
21 15 8 25 20 23 28 -6 14 12 73 22 74 31 3 57 13 129 49 46 23 83 46 83 50 0
5 21 13 47 18 79 17 108 -18 67 -83 -7 -11 -18 -40 -25 -65 -7 -25 -18 -48
-23 -52 -5 -4 3 -10 18 -14 22 -5 45 2 102 31 72 37 104 42 67 11 -10 -9 -33
-29 -52 -46 -19 -16 -40 -30 -46 -30 -7 0 -15 -7 -19 -15 -3 -8 -12 -12 -21
-9 -8 4 -17 -1 -21 -10 -7 -19 -35 -21 -52 -4 -9 9 -13 7 -18 -5 -7 -19 -64
-24 -64 -6 0 8 -4 8 -15 -1 -8 -6 -18 -9 -22 -7 -5 3 -16 0 -25 -7 -15 -11
-13 -16 19 -55 45 -53 97 -87 160 -102 79 -20 108 -36 148 -81 54 -60 94 -88
127 -88 36 0 108 47 108 70 0 23 39 72 51 64 5 -3 37 8 70 25 34 17 96 40 138
52 42 12 85 28 96 35 11 8 27 14 37 14 10 0 26 9 35 20 10 11 23 20 29 20 6 0
11 14 12 32 1 27 -11 43 -83 112 -125 121 -135 155 -75 246 42 64 27 75 -140
101 -73 11 -127 32 -180 70 -21 15 -49 18 -168 21 -78 2 -142 0 -142 -4 0 -5
-25 -8 -55 -8 -34 0 -55 4 -55 11 0 6 -9 1 -19 -12 -16 -19 -22 -21 -32 -12
-10 10 -17 9 -31 -4 -15 -13 -21 -14 -27 -5 -6 10 -14 8 -33 -8 -19 -15 -41
-20 -82 -20 -31 0 -56 4 -56 10 0 6 -10 5 -25 -2 -40 -18 -59 -68 -52 -143 3
-38 1 -65 -5 -65 -5 0 -6 -4 -3 -10 3 -5 -1 -10 -9 -10 -9 0 -16 5 -16 12 0 9
-3 9 -12 0 -7 -7 -21 -12 -33 -12 -11 0 -26 -9 -33 -20 -14 -22 -49 -26 -73
-7 -8 7 -35 49 -60 94 -36 67 -42 85 -33 100 7 10 19 17 29 15 9 -2 23 2 31 9
8 6 14 8 14 4 0 -4 6 -3 13 3 6 5 33 13 59 16 47 7 47 7 54 53 7 49 2 57 -52
89 -9 5 -15 17 -12 25 5 12 38 13 236 4 127 -5 234 -13 238 -17 12 -13 271 -9
313 4 32 10 41 18 45 42 4 16 2 34 -3 39 -18 18 -88 31 -171 32 -47 1 -94 4
-105 8 -11 3 -85 11 -165 18 -80 6 -151 16 -157 21 -9 7 -15 6 -19 -6z"/>
<path d="M11285 12098 c-38 -5 -161 -7 -273 -5 -172 4 -204 3 -209 -10 -7 -19
54 -267 77 -314 26 -50 68 -82 100 -76 78 16 390 112 431 133 59 29 77 63 60
110 -6 17 -11 58 -11 92 0 86 -14 92 -175 70z"/>
<path d="M12508 9625 c-3 -3 -34 -6 -69 -7 -45 -1 -75 -8 -99 -22 -66 -39
-189 -98 -215 -101 -5 -1 -17 -5 -25 -8 -95 -38 -185 -51 -260 -38 -33 6 -59
6 -64 0 -15 -14 -130 -11 -145 4 -10 10 -18 5 -39 -23 -14 -19 -66 -74 -116
-123 l-91 -87 -1 -103 c-1 -144 -29 -190 -135 -221 -97 -27 -168 -103 -312
-336 -84 -136 -127 -220 -127 -249 0 -11 27 -72 61 -138 56 -109 61 -122 57
-170 -3 -36 -14 -67 -36 -100 -135 -208 -142 -234 -80 -324 20 -30 46 -80 58
-112 14 -36 42 -81 75 -118 43 -48 56 -71 69 -125 29 -116 64 -162 189 -254
27 -19 72 -54 100 -76 162 -128 207 -148 260 -116 76 48 185 74 337 81 148 8
171 13 205 51 29 32 112 67 185 79 163 25 169 24 163 -46 -4 -38 -1 -53 15
-74 34 -42 130 -87 213 -99 41 -6 88 -13 104 -16 17 -3 39 -11 50 -20 29 -22
25 -108 -9 -204 -16 -45 -29 -107 -33 -155 -7 -92 -2 -106 77 -215 114 -156
231 -428 246 -570 8 -77 -24 -193 -87 -314 -61 -120 -75 -190 -59 -309 19
-137 60 -231 177 -401 62 -91 70 -125 53 -230 -7 -45 -13 -118 -12 -164 1 -70
5 -90 27 -127 14 -25 35 -50 48 -56 12 -7 45 -34 74 -62 73 -69 85 -103 128
-375 34 -213 94 -243 296 -149 53 25 152 62 220 83 68 20 150 51 181 69 61 33
128 89 128 105 0 6 7 10 15 10 9 0 19 10 24 23 5 12 19 31 31 42 70 63 193
277 210 365 5 28 14 59 20 70 10 19 15 22 42 24 32 3 132 63 134 81 2 11 10
45 19 75 13 44 15 80 10 176 -8 145 2 188 55 242 21 20 106 105 189 187 189
186 214 222 208 290 -5 72 -43 259 -83 411 -27 102 -36 159 -41 261 -6 128 -5
133 20 185 19 38 68 94 173 198 179 177 274 283 380 420 114 148 248 350 297
449 39 77 42 92 45 175 4 106 -6 143 -43 152 -15 4 -71 -3 -128 -15 -56 -12
-109 -23 -117 -25 -8 -2 -22 -6 -30 -9 -45 -15 -181 -47 -204 -47 -77 0 -216
126 -281 255 -41 80 -65 109 -126 157 -19 14 -73 58 -120 96 -103 85 -125 126
-134 253 -7 98 -28 172 -59 214 -47 62 -136 269 -136 316 0 11 -16 34 -35 52
-32 30 -74 106 -75 135 0 7 -9 31 -19 55 -11 23 -24 62 -28 87 -11 59 -28 66
-179 80 -271 25 -310 31 -414 65 -58 19 -145 44 -195 54 -124 27 -133 21 -137
-91 l-3 -83 -38 1 c-50 2 -123 25 -307 99 -183 74 -273 122 -319 172 l-34 36
7 81 c3 44 9 95 12 113 5 26 1 37 -19 57 -26 26 -27 26 -195 26 -93 0 -171 -2
-174 -5z"/>
<path d="M21075 8555 c-31 -30 -32 -65 -4 -122 20 -42 84 -97 100 -87 11 7 22
128 14 164 -4 20 -18 38 -38 51 -41 24 -43 24 -72 -6z"/>
<path d="M21211 7979 c-50 -75 -53 -123 -15 -214 14 -33 44 -109 67 -169 33
-85 53 -121 94 -167 40 -46 54 -69 63 -112 12 -62 1 -156 -24 -206 -9 -16 -13
-36 -11 -44 6 -14 79 -51 210 -106 95 -40 145 -53 180 -49 29 3 29 3 26 63 -2
55 -28 196 -52 290 -24 91 -188 257 -311 315 -55 25 -60 37 -83 185 -22 145
-68 275 -95 275 -5 0 -27 -28 -49 -61z"/>
<path d="M20959 7058 c-8 -7 -48 -57 -88 -110 -97 -129 -164 -205 -219 -248
-41 -32 -51 -35 -116 -37 -39 0 -74 -2 -78 -2 -17 -2 -18 -70 -3 -217 19 -202
35 -277 65 -308 26 -28 94 -46 176 -46 30 0 89 -7 130 -16 116 -24 124 -21
145 54 50 177 107 273 169 286 25 5 30 10 30 36 0 17 -10 50 -21 73 -30 57
-37 163 -15 207 43 88 -17 265 -109 319 -42 25 -46 25 -66 9z"/>
<path d="M21337 6531 c-61 -67 -76 -112 -102 -294 -31 -216 -14 -279 62 -230
14 10 51 22 82 28 48 10 58 16 71 43 20 42 46 65 98 85 57 23 80 22 168 -9 64
-22 84 -24 144 -18 68 6 91 16 70 29 -5 3 -10 36 -10 73 -1 97 -22 177 -68
251 -9 15 -26 -28 -42 -108 -29 -136 -49 -161 -87 -104 -10 15 -37 45 -60 68
-32 30 -43 49 -43 71 0 72 -83 137 -191 149 -55 6 -56 6 -92 -34z"/>
<path d="M22191 6404 c-14 -18 -21 -41 -21 -69 0 -63 -29 -95 -86 -95 -63 0
-84 -13 -84 -54 l0 -34 93 -4 c83 -3 101 -8 172 -43 104 -51 109 -52 245 -70
168 -23 188 -53 89 -137 -27 -22 -49 -47 -49 -54 0 -18 64 -57 120 -73 60 -17
157 -71 237 -131 36 -28 74 -50 83 -50 10 0 23 13 29 28 19 45 101 117 147
130 77 22 91 17 178 -61 105 -94 164 -140 203 -161 47 -24 57 -20 32 15 -30
43 -37 139 -14 208 19 59 121 177 161 187 13 3 24 10 24 14 0 4 16 28 36 54
43 57 42 86 -2 99 -29 8 -37 5 -88 -37 -65 -53 -105 -72 -173 -82 -76 -11 -82
-12 -115 -29 -73 -36 -132 -13 -238 92 -141 140 -407 261 -484 221 -12 -6 -49
-35 -84 -64 -35 -30 -72 -54 -82 -54 -21 0 -46 24 -89 80 -67 90 -100 125
-153 161 -31 22 -59 39 -62 39 -2 0 -14 -12 -25 -26z"/>
<path d="M22924 5422 c-7 -4 -28 -48 -48 -99 -29 -74 -38 -114 -46 -210 -21
-228 -47 -264 -165 -232 -146 40 -215 160 -215 376 0 56 -3 104 -7 106 -36 22
-428 43 -467 26 -34 -16 -65 -70 -73 -125 -3 -26 -15 -55 -29 -69 -22 -24 -27
-25 -150 -25 -95 0 -134 -4 -160 -16 -36 -17 -85 -73 -149 -168 -63 -94 -162
-190 -248 -240 -43 -25 -82 -46 -87 -46 -5 0 -24 -8 -42 -19 -42 -23 -118 -37
-282 -51 -134 -12 -174 -24 -200 -62 -23 -33 -20 -122 9 -251 47 -207 34 -304
-71 -506 -35 -68 -64 -136 -64 -151 0 -15 13 -44 30 -65 17 -21 32 -48 35 -59
18 -89 22 -99 40 -106 12 -4 71 7 155 31 182 52 484 105 933 165 159 21 256
10 301 -35 28 -28 31 -38 34 -105 l4 -74 33 5 c18 3 50 0 70 -7 47 -16 65 -56
65 -148 0 -84 21 -118 78 -128 54 -10 87 -32 111 -74 29 -51 41 -59 96 -65 79
-8 155 -68 141 -111 -15 -45 -43 -68 -80 -66 -47 3 -85 -17 -135 -74 -67 -77
-52 -100 37 -56 32 16 75 35 95 41 19 7 65 27 101 45 85 41 105 77 114 197 6
73 11 91 36 124 16 21 43 45 60 54 17 9 44 31 61 49 17 17 37 32 44 32 7 0 39
27 71 60 32 33 65 60 74 60 9 0 16 4 16 8 0 11 50 66 71 78 25 14 186 192 244
269 76 101 112 171 135 260 17 67 19 88 9 139 -24 137 -53 209 -133 333 -101
158 -144 270 -206 546 -22 98 -46 191 -55 206 -8 16 -21 60 -30 99 -19 83 -43
118 -88 127 -17 4 -39 8 -47 11 -8 2 -20 0 -26 -4z"/>
<path d="M24632 3358 c-5 -7 -22 -51 -37 -98 -42 -133 -44 -137 -104 -193 -56
-51 -229 -147 -266 -147 -10 0 -52 -34 -94 -77 -79 -79 -90 -86 -394 -241
-112 -56 -187 -115 -187 -146 0 -10 15 -33 34 -52 55 -55 94 -50 268 39 207
106 211 109 382 294 32 34 64 63 70 63 6 0 17 9 24 20 7 12 16 18 21 16 5 -3
26 6 46 20 21 14 57 33 79 42 95 39 147 73 173 113 56 83 72 115 84 162 16 68
5 113 -41 159 -44 43 -44 43 -58 26z"/>
</g>
</svg>
